<?xml version="1.0" standalone="no"?>
<!DOCTYPE svg PUBLIC "-//W3C//DTD SVG 20010904//EN"
 "http://www.w3.org/TR/2001/REC-SVG-20010904/DTD/svg10.dtd">
<svg version="1.0" xmlns="http://www.w3.org/2000/svg"
 width="1280.000000pt" height="781.000000pt" viewBox="0 0 1280.000000 781.000000"
 preserveAspectRatio="xMidYMid meet">
<metadata>
Created by potrace 1.15, written by Peter Selinger 2001-2017
</metadata>
<g transform="translate(0.000000,781.000000) scale(0.100000,-0.100000)"
fill="#000000" stroke="none">
<path d="M9483 7781 c-62 -15 -120 -34 -129 -42 -9 -7 -53 -88 -98 -179 -95
-192 -504 -990 -516 -1005 -4 -5 -193 -380 -420 -833 -227 -453 -422 -834
-433 -848 -11 -14 -52 -40 -91 -58 -39 -18 -258 -129 -486 -246 l-415 -212
-71 6 c-40 3 -226 35 -415 72 -189 36 -416 79 -504 95 -152 28 -531 101 -810
155 -71 14 -134 29 -140 33 -5 5 -41 11 -80 14 -38 3 -191 29 -340 57 -680
130 -831 146 -1009 108 l-49 -10 7 -262 7 -261 -63 -61 c-84 -80 -121 -106
-193 -137 -33 -14 -96 -41 -140 -60 -147 -63 -582 -326 -678 -409 -70 -61 -87
-194 -38 -301 50 -111 122 -143 306 -134 146 6 290 40 565 132 203 68 251 80
224 57 -98 -86 -402 -313 -642 -481 -114 -79 -274 -193 -357 -254 -82 -60
-172 -119 -200 -131 -99 -45 -390 -227 -533 -335 -119 -89 -182 -190 -182
-293 0 -57 4 -69 41 -126 73 -111 146 -144 319 -142 141 2 140 2 140 -9 0 -5
-57 -58 -127 -119 -339 -291 -667 -614 -808 -797 -56 -71 -93 -98 -245 -175
-63 -32 -191 -107 -285 -166 -93 -59 -244 -152 -335 -207 -91 -55 -184 -115
-207 -134 -40 -32 -62 -68 -49 -80 14 -14 118 33 609 279 l522 261 105 3 c125
2 301 34 570 103 317 81 508 138 804 240 65 23 137 46 160 51 24 5 51 12 62
16 10 4 -46 -60 -126 -142 -159 -163 -240 -263 -240 -298 0 -13 9 -31 20 -41
18 -16 27 -17 109 -6 263 33 573 112 873 222 60 21 117 39 128 39 12 0 38 9
58 19 20 10 64 28 97 39 33 11 107 43 165 71 58 28 113 51 123 51 11 0 31 8
45 18 15 10 50 25 77 32 64 17 481 216 943 448 112 56 231 114 265 128 34 15
98 48 142 74 381 225 599 352 650 378 65 33 205 114 245 142 14 10 84 54 155
97 72 44 172 106 223 138 110 68 98 68 337 0 170 -49 308 -102 303 -116 -2 -5
-81 -92 -177 -195 -127 -136 -194 -199 -245 -232 -206 -132 -535 -371 -682
-495 -80 -66 -164 -184 -184 -257 -19 -69 -17 -188 4 -233 26 -53 114 -139
169 -165 56 -27 178 -30 272 -7 78 18 276 83 290 95 6 5 60 31 121 58 296 132
1089 659 1276 849 65 65 85 95 127 184 70 146 91 211 91 284 0 86 -23 119
-126 181 -18 11 -18 12 1 34 26 29 253 233 327 292 52 42 62 46 130 53 40 4
204 22 363 41 160 19 407 48 550 64 143 16 370 43 505 59 134 17 248 27 253
22 5 -5 -15 -25 -43 -46 -253 -186 -592 -520 -652 -644 -27 -55 -36 -163 -18
-225 29 -103 138 -192 265 -216 95 -18 191 12 379 117 226 127 505 325 840
598 61 50 140 112 175 139 137 105 237 230 267 333 25 86 34 92 149 103 263
25 919 119 933 134 19 19 4 44 -60 100 -70 62 -159 106 -213 106 -65 0 -923
147 -1170 200 -27 6 -86 15 -131 20 -308 36 -989 151 -1804 306 -489 93 -524
101 -590 134 -87 43 -120 90 -120 167 0 81 50 141 205 246 165 112 235 216
264 392 17 98 19 103 51 120 38 20 53 49 45 86 -8 37 -26 37 -69 -2 l-35 -31
-56 48 c-43 37 -55 54 -55 76 0 47 27 85 83 122 60 38 93 91 82 133 -3 13 -24
41 -46 62 l-41 37 60 240 c33 131 77 311 97 399 21 88 83 333 138 545 54 212
115 450 133 530 19 80 53 222 75 315 23 94 42 195 43 225 l1 55 -40 2 c-22 1
-90 -10 -152 -26z m48 -213 c3 -20 11 -44 18 -52 19 -22 6 -45 -34 -61 -43
-19 -115 -20 -115 -2 0 6 21 23 47 37 55 29 67 50 29 50 -30 0 -33 16 -10 48
25 36 57 26 65 -20z m-206 -188 c71 0 71 -25 4 -246 -28 -93 -77 -257 -109
-364 -56 -193 -229 -751 -249 -803 -13 -32 -84 -67 -137 -67 -21 0 -37 -6 -40
-15 -7 -17 -69 -39 -89 -31 -28 11 -33 -1 165 451 101 232 249 625 235 625 -2
0 -31 -50 -66 -112 -35 -61 -75 -126 -90 -142 -14 -17 -43 -62 -63 -101 -133
-252 -161 -307 -188 -368 -16 -38 -27 -74 -25 -80 2 -6 20 16 41 49 21 32 36
51 32 41 -12 -38 -18 -67 -13 -67 4 0 18 20 33 45 14 25 28 44 31 42 4 -5 -27
-83 -132 -332 -26 -60 -73 -173 -105 -250 -32 -77 -97 -228 -145 -335 -94
-212 -107 -250 -82 -250 9 0 22 19 33 48 14 39 140 330 228 528 22 47 27 52
87 73 115 42 214 69 221 62 4 -4 -13 -76 -37 -160 -45 -154 -54 -211 -35 -211
14 0 26 30 51 130 29 119 78 268 89 275 6 4 14 -4 19 -17 8 -21 9 -20 20 17
11 40 14 82 4 58 -2 -7 -9 -13 -14 -13 -19 0 -8 26 23 52 32 27 33 28 11 34
-13 4 -23 11 -23 18 1 23 119 360 120 341 2 -38 39 50 80 192 88 301 112 378
121 387 8 9 -35 -164 -106 -424 -64 -234 -117 -442 -184 -725 -6 -27 -6 -42 1
-46 13 -8 1 -46 -22 -69 -19 -19 -60 -136 -60 -169 0 -18 -18 -41 -32 -41 -13
0 -9 32 13 125 30 127 18 127 -15 -1 -16 -60 -34 -121 -42 -135 -7 -14 -57
-54 -111 -90 -112 -72 -193 -144 -193 -169 0 -21 27 -30 93 -30 54 0 58 -10
28 -76 -13 -28 -29 -45 -52 -54 -19 -7 -58 -24 -88 -38 -30 -13 -138 -58 -240
-99 -162 -65 -192 -74 -229 -69 -56 8 -102 40 -102 72 0 13 133 291 296 617
163 325 343 689 399 807 56 118 153 312 214 430 62 118 162 321 223 450 60
129 117 243 126 253 15 16 16 16 34 -3 10 -11 29 -20 43 -20z m81 -274 c-40
-134 -56 -176 -56 -150 0 8 72 255 86 293 2 8 7 12 9 9 3 -3 -15 -71 -39 -152z
m24 -100 c-27 -93 -52 -171 -55 -174 -12 -12 -3 29 35 164 44 157 60 204 66
189 2 -6 -18 -86 -46 -179z m-96 -325 c-15 -56 -29 -100 -31 -97 -2 2 8 49 23
105 15 56 29 99 31 97 3 -2 -8 -50 -23 -105z m-42 -143 c-8 -8 -9 -4 -5 13 4
13 8 18 11 10 2 -7 -1 -18 -6 -23z m-161 -597 c-23 -78 -41 -146 -41 -151 0
-17 -21 -63 -26 -57 -6 6 15 91 56 222 16 50 32 108 36 130 5 28 9 33 11 19 2
-12 -14 -85 -36 -163z m-64 -393 c-3 -8 -6 -5 -6 6 -1 11 2 17 5 13 3 -3 4
-12 1 -19z m-52 -37 c-4 -23 -12 -44 -18 -48 -6 -4 -8 0 -4 10 3 8 9 32 13 52
9 49 18 36 9 -14z m125 -100 c37 -70 -27 -111 -279 -182 -57 -16 -113 -29
-124 -29 -20 0 -20 0 -1 21 23 26 195 140 271 180 65 34 117 38 133 10z m-184
-290 c-23 -25 -14 -38 42 -62 26 -11 49 -25 53 -30 7 -11 -42 -181 -67 -235
-9 -18 -22 -34 -30 -34 -7 0 -22 -19 -33 -42 -11 -24 -31 -56 -46 -72 -24 -27
-27 -27 -44 -12 -18 16 -20 16 -38 -8 -11 -14 -26 -39 -33 -56 -9 -23 -17 -29
-31 -25 -15 5 -24 -6 -48 -60 -16 -36 -37 -68 -46 -71 -9 -4 -29 -26 -46 -51
-39 -57 -49 -48 -15 13 14 25 26 50 26 55 0 19 -37 8 -50 -15 -16 -30 -38 -40
-56 -25 -10 8 -17 2 -29 -28 -27 -65 -44 -86 -60 -73 -10 8 -19 8 -34 1 -18
-10 -21 -6 -37 42 -9 28 -30 85 -46 125 -15 40 -26 77 -24 81 3 4 40 34 83 66
96 72 164 136 157 147 -8 13 -54 -16 -143 -92 -92 -77 -119 -95 -129 -85 -4 4
15 27 42 51 60 55 54 69 -10 20 -26 -20 -52 -36 -57 -36 -18 0 -77 63 -77 81
0 12 21 25 73 44 173 65 311 122 456 190 86 40 173 78 194 86 50 18 72 43 69
81 -3 35 25 75 42 58 6 -6 4 -16 -8 -29z m-195 -74 c-8 -8 -11 -2 -11 19 0 40
14 54 18 19 2 -15 -1 -32 -7 -38z m65 47 c-3 -9 -6 -18 -6 -20 0 -2 -4 -4 -9
-4 -5 0 -7 9 -4 20 3 11 10 20 15 20 6 0 7 -7 4 -16z m-4856 -259 c271 -42
740 -132 754 -145 12 -12 -16 -24 -119 -54 -102 -30 -134 -51 -93 -61 14 -4
34 -5 44 -3 37 6 26 -34 -33 -119 -32 -47 -71 -92 -87 -100 -36 -19 -26 -30
45 -48 72 -20 99 -19 159 5 28 11 72 25 98 30 26 6 78 20 116 32 58 18 70 26
78 51 10 27 14 29 47 23 55 -9 111 -26 111 -34 0 -4 -24 -14 -52 -22 -63 -18
-72 -39 -26 -63 18 -9 44 -26 58 -37 14 -11 59 -26 104 -35 88 -16 113 -30 74
-40 -28 -7 -198 30 -243 53 -16 8 -42 24 -56 34 -34 26 -73 21 -77 -10 -6 -42
22 -69 85 -82 32 -7 103 -23 158 -36 55 -13 114 -24 132 -24 47 0 143 47 143
70 0 4 -22 21 -50 39 -27 18 -53 37 -56 43 -9 15 39 3 93 -23 58 -28 89 -23
86 15 l-2 29 57 -6 c60 -5 172 -36 172 -47 0 -12 -69 -39 -152 -60 -46 -12
-103 -30 -127 -41 -42 -18 -44 -20 -28 -37 28 -27 100 -20 187 18 65 29 86 34
160 34 88 1 140 -8 140 -23 0 -19 -109 -51 -150 -45 -33 5 -73 -5 -232 -61
-106 -38 -251 -93 -323 -123 -71 -30 -172 -72 -224 -94 -105 -44 -118 -45
-276 -14 -544 109 -585 115 -585 97 0 -17 138 -52 460 -116 102 -20 189 -40
194 -43 14 -8 -313 -165 -538 -258 -70 -29 -96 -54 -56 -54 23 0 199 74 489
206 102 47 198 84 215 84 34 0 568 -90 576 -97 13 -12 -49 -38 -229 -97 -108
-36 -245 -79 -306 -96 -232 -67 -616 -200 -759 -264 -82 -36 -157 -66 -166
-66 -9 0 -61 -23 -115 -50 -54 -28 -106 -50 -116 -50 -15 0 -18 15 -23 118
-12 240 -21 325 -33 329 -6 3 -54 -38 -105 -90 -84 -84 -252 -216 -513 -400
-44 -31 -103 -77 -130 -102 -40 -35 -46 -44 -30 -45 33 0 186 110 471 338 84
67 158 122 164 122 13 0 6 -29 -28 -125 -43 -123 -101 -224 -143 -251 -41 -26
-202 -99 -317 -145 -40 -16 -148 -64 -240 -107 -92 -44 -219 -98 -282 -122
-63 -23 -144 -53 -179 -67 -66 -25 -95 -25 -85 1 8 20 396 307 605 447 64 43
169 121 378 284 113 87 231 172 261 189 30 16 81 54 114 83 32 30 69 61 82 70
13 8 24 24 24 34 0 23 -8 23 -34 4 -38 -29 -43 -19 -50 83 -18 247 -46 579
-52 600 -10 34 -31 26 -69 -27 -42 -58 -68 -77 -120 -87 l-39 -7 23 29 c22 27
79 78 156 138 35 27 37 31 31 70 -6 41 -36 378 -36 404 0 33 175 74 285 65 39
-3 108 -11 155 -18z m3970 -95 c12 -12 18 -25 15 -30 -7 -12 -167 -72 -173
-65 -10 9 101 115 120 115 10 0 27 -9 38 -20z m196 -106 c22 -47 25 -60 15
-81 -9 -20 -17 -24 -35 -19 -19 5 -36 -4 -76 -37 -74 -59 -113 -87 -124 -87
-5 0 -35 25 -67 55 -50 47 -89 69 -89 49 0 -3 18 -26 40 -51 22 -25 40 -53 40
-61 0 -8 7 -20 16 -26 14 -11 13 -15 -10 -43 -14 -16 -23 -33 -19 -36 10 -10
-17 -36 -32 -31 -17 7 -24 -6 -16 -29 6 -17 12 -14 56 22 28 23 57 40 65 39
23 -5 59 -78 65 -135 3 -29 8 -78 11 -108 l5 -55 -57 -60 c-44 -47 -53 -60
-38 -60 11 0 25 5 32 12 7 7 12 8 12 2 0 -20 -51 -58 -79 -60 -16 -1 -49 -15
-73 -32 -50 -34 -369 -158 -538 -208 -25 -7 -110 -36 -190 -64 -80 -28 -185
-64 -235 -80 -231 -75 -545 -192 -970 -363 -345 -140 -488 -212 -715 -365
-329 -220 -439 -304 -476 -360 -16 -24 -34 -103 -35 -156 0 -10 -13 -47 -29
-82 -20 -44 -37 -67 -59 -78 -17 -9 -36 -26 -43 -39 l-12 -22 -5 23 c-9 36
-23 29 -54 -24 -52 -89 -142 -165 -117 -99 14 37 2 31 -57 -27 -60 -59 -79
-58 -39 2 14 22 22 40 17 40 -20 0 -54 -39 -94 -105 -23 -38 -50 -71 -60 -73
-12 -2 -15 1 -11 12 8 22 -8 20 -39 -4 -16 -13 -23 -27 -20 -39 3 -11 -7 -32
-27 -55 -42 -47 -58 -46 -25 1 40 60 29 71 -20 20 -24 -26 -49 -47 -55 -47 -6
0 -16 13 -21 30 -14 39 -33 29 -94 -50 -50 -66 -70 -77 -52 -30 15 40 0 55
-46 46 -42 -8 -105 -72 -113 -116 -4 -15 -19 -41 -35 -56 -31 -30 -39 -22 -13
14 15 22 46 124 39 130 -2 2 -23 -15 -48 -37 -48 -45 -57 -49 -57 -26 0 22
-15 18 -52 -13 -66 -56 -69 -57 -78 -42 -6 10 -15 9 -42 -8 -18 -11 -44 -32
-57 -46 -14 -14 -30 -26 -37 -26 -7 0 -27 -25 -44 -55 -34 -59 -115 -153 -124
-144 -3 3 21 41 54 84 33 43 58 80 57 82 -2 1 -35 -13 -74 -32 -82 -40 -85
-41 -76 -19 4 12 2 15 -8 12 -8 -3 -14 -16 -14 -29 0 -33 -61 -109 -87 -109
-12 0 -43 -24 -75 -57 -51 -54 -54 -56 -48 -28 10 50 10 56 1 162 -8 100 -8
104 19 148 14 25 52 72 83 103 88 89 308 255 455 344 72 44 175 106 227 138
52 31 114 67 137 78 23 12 45 26 48 32 16 26 -75 252 -130 325 -16 20 -63 26
-99 12 -16 -6 -18 -15 -13 -60 3 -28 8 -81 11 -117 5 -58 4 -60 -4 -20 -35
174 -43 186 -111 177 -23 -3 -46 -11 -50 -19 -5 -7 -31 -80 -59 -163 -44 -131
-69 -194 -70 -174 0 3 23 74 51 158 28 83 48 158 45 166 -4 12 -25 15 -93 14
-125 -2 -143 -7 -167 -51 -12 -21 -87 -127 -168 -237 -82 -110 -148 -205 -148
-211 0 -14 56 -12 120 5 63 17 223 20 301 5 34 -7 56 -7 62 -1 6 6 20 50 33
99 31 124 47 152 85 152 17 0 43 -8 57 -19 39 -26 74 -32 104 -17 24 13 27 12
37 -11 11 -23 16 -25 54 -20 23 2 51 8 62 12 l20 7 -20 -17 c-11 -9 -108 -68
-215 -132 -259 -154 -285 -170 -429 -282 -67 -53 -140 -108 -161 -123 -21 -15
-52 -51 -70 -79 l-31 -51 -44 41 c-25 23 -48 41 -52 41 -5 -1 -17 -14 -28 -30
-50 -72 -107 -140 -114 -136 -4 3 -33 -19 -65 -49 -76 -72 -139 -114 -179
-118 -18 -2 -52 -18 -76 -35 -46 -33 -67 -39 -73 -21 -2 6 -40 -9 -88 -34 -47
-25 -107 -50 -134 -56 -27 -7 -84 -30 -126 -52 -42 -21 -82 -39 -89 -39 -7 0
-33 -12 -59 -27 -85 -48 -335 -194 -467 -273 -149 -88 -425 -233 -432 -227 -6
7 397 247 416 247 5 0 33 21 63 46 29 25 73 57 98 72 55 32 201 144 251 193
20 20 77 58 125 84 49 26 109 61 134 78 25 17 57 39 72 49 15 10 30 18 33 18
4 0 19 13 35 29 16 15 43 31 59 34 17 4 31 11 31 18 0 7 -11 8 -30 4 -43 -9
-37 9 10 30 31 14 43 16 52 7 16 -16 28 -15 28 2 0 8 7 16 15 20 8 3 15 12 15
21 0 19 14 19 30 0 14 -17 36 -20 45 -5 11 18 -17 42 -85 72 -61 28 -64 30
-46 44 27 19 118 52 165 60 50 8 61 -9 28 -44 -25 -28 -43 -87 -28 -96 4 -3
29 13 55 34 27 22 53 40 59 40 6 0 18 6 26 14 23 20 121 56 154 56 39 0 67 17
67 40 0 29 -78 89 -139 107 -64 18 -125 43 -119 48 2 2 37 -3 78 -11 89 -17
90 -17 90 -4 0 5 -21 16 -48 24 -37 12 -41 15 -19 15 40 1 33 19 -10 26 -59
10 -74 16 -68 26 9 13 118 0 223 -27 52 -13 95 -24 96 -24 1 0 2 10 2 21 0 14
-14 30 -38 45 -47 30 -48 37 -3 28 64 -12 37 13 -38 36 -100 29 -107 33 -78
38 13 2 60 -8 103 -23 44 -15 82 -24 86 -20 4 3 -1 11 -10 16 -15 8 -11 17 30
73 26 35 79 107 117 162 176 247 262 355 348 437 84 80 89 87 53 72 -22 -8
-41 -13 -43 -11 -11 11 51 61 127 101 267 141 614 306 770 365 41 16 101 40
132 54 88 39 847 299 1010 345 251 72 337 112 1298 605 140 71 291 147 335
168 44 21 100 49 125 63 116 64 589 299 643 319 34 13 71 27 82 31 12 5 4 -9
-22 -36 -42 -44 -53 -72 -33 -84 13 -8 95 14 290 80 91 30 170 55 177 55 7 0
24 -25 39 -56z m-3206 26 c19 -6 134 -29 255 -50 121 -22 360 -67 530 -100
294 -58 812 -153 975 -181 41 -6 79 -15 83 -19 8 -7 -185 -116 -270 -152 l-50
-21 -214 47 c-118 26 -367 85 -554 131 -187 46 -358 87 -380 90 -61 11 -636
152 -669 165 -17 6 -25 14 -20 19 17 16 195 68 274 80 3 1 21 -4 40 -9z m3251
-149 c-6 -11 -31 -34 -56 -52 -25 -18 -45 -36 -45 -41 0 -10 17 -1 84 47 26
19 52 35 56 35 9 0 41 -67 64 -133 32 -95 30 -100 -111 -240 -94 -93 -129
-122 -132 -109 -2 9 -8 20 -13 23 -6 4 -16 47 -24 96 -7 48 -22 111 -34 138
-11 27 -20 56 -18 66 4 20 231 214 236 200 2 -5 -2 -19 -7 -30z m-3434 -6
c134 -35 150 -47 86 -64 -55 -16 -111 -13 -165 6 -37 13 -48 22 -48 38 0 12 3
25 7 28 11 11 58 8 120 -8z m3946 -463 c25 -26 65 -55 97 -69 67 -30 81 -20
-189 -128 -115 -47 -208 -90 -213 -99 -7 -13 -5 -22 6 -35 9 -10 13 -20 10
-24 -13 -13 37 -25 131 -31 181 -12 208 -16 195 -31 -7 -8 -85 -37 -173 -66
-286 -90 -507 -169 -660 -235 -156 -67 -191 -74 -272 -54 -51 12 -566 108
-665 123 -41 7 -75 17 -75 22 0 6 135 56 300 111 165 56 365 125 445 153 79
29 153 50 164 47 12 -3 36 7 65 28 41 30 118 68 289 141 74 31 152 87 248 179
78 73 100 84 74 35 -23 -43 12 -15 71 56 l62 76 24 -77 c18 -56 36 -88 66
-122z m-2451 103 c111 -24 149 -35 144 -44 -9 -13 -641 -330 -753 -377 -58
-24 -119 -44 -134 -44 -56 0 -550 88 -563 101 -15 14 358 175 562 243 108 36
114 37 163 25 57 -15 87 -10 254 41 55 17 110 32 122 34 12 2 33 10 45 19 29
20 69 21 160 2z m-2788 -78 c20 -56 -44 -277 -98 -342 -12 -14 -19 -16 -22 -7
-3 6 -14 12 -24 12 -22 0 -53 41 -69 92 -25 78 -97 148 -151 148 -32 0 -24
-16 24 -49 74 -51 132 -160 111 -208 -8 -17 -8 -17 -12 0 -8 32 -44 17 -77
-33 -9 -13 -24 -25 -33 -26 -10 0 -30 -1 -45 -2 -14 -1 -40 -13 -56 -27 -21
-18 -32 -22 -35 -13 -3 8 -33 -14 -77 -57 -40 -38 -70 -62 -67 -52 4 11 1 20
-8 23 -8 3 -26 30 -39 59 -30 62 -75 104 -139 131 -26 10 -45 23 -44 29 7 20
147 105 346 210 176 93 211 108 260 111 31 2 88 10 126 18 98 19 118 17 129
-17z m5591 -146 c61 -11 270 -49 465 -85 436 -80 926 -163 1245 -211 296 -44
355 -55 355 -67 0 -5 -20 -18 -45 -29 l-45 -20 -373 26 c-536 37 -829 60
-1382 110 -269 24 -557 49 -640 56 -82 6 -152 13 -155 16 -10 10 38 34 214
109 143 61 251 110 251 114 0 0 50 -9 110 -19z m-5635 -306 c0 -16 -89 -136
-90 -121 0 15 71 126 81 126 5 0 9 -2 9 -5z m5764 -10 c253 -20 311 -28 308
-40 -3 -18 -54 -17 -218 5 -89 13 -177 20 -196 16 -37 -7 -180 -85 -185 -101
-2 -6 2 -18 9 -27 10 -13 60 -22 209 -41 195 -24 196 -24 243 -60 97 -74 251
-109 384 -87 115 18 221 47 249 68 23 17 29 17 54 5 31 -15 312 -53 397 -53
30 0 69 7 87 16 37 17 115 81 115 94 0 15 -187 44 -420 64 -76 7 -107 -5 -76
-29 19 -14 18 -15 -12 -15 -28 0 -32 4 -38 38 -4 20 -11 43 -17 50 -5 7 -8 15
-5 18 3 2 160 -9 349 -25 629 -55 644 -56 676 -33 45 31 140 62 193 62 26 0
88 -9 137 -19 48 -11 122 -24 163 -31 41 -6 158 -27 260 -45 102 -19 282 -50
400 -69 118 -20 238 -42 265 -50 50 -13 165 -79 165 -95 0 -4 -33 -11 -72 -14
-40 -3 -145 -15 -233 -26 -480 -60 -884 -107 -1080 -126 -275 -28 -448 -54
-465 -70 -20 -21 -3 -47 38 -57 18 -5 32 -15 32 -22 0 -14 -136 -111 -217
-156 -28 -15 -43 -31 -43 -43 0 -29 41 -15 125 41 93 62 96 63 154 46 66 -19
121 -92 121 -160 0 -40 -114 -219 -160 -251 -11 -8 -18 -24 -18 -42 1 -28 -39
-89 -116 -176 -23 -26 -35 -34 -36 -24 0 9 29 49 65 89 36 40 66 75 66 79 1 3
2 17 4 31 1 14 5 35 9 48 10 31 -5 28 -39 -8 -16 -16 -34 -30 -39 -30 -6 0
-24 26 -41 58 -40 77 -148 184 -209 207 -44 17 -48 17 -64 1 -24 -24 -6 -47
54 -69 62 -23 120 -78 150 -142 49 -103 43 -130 -46 -225 -47 -50 -52 -51 -33
-4 10 27 -9 13 -75 -57 -40 -42 -60 -72 -57 -81 7 -17 -92 -128 -114 -128 -17
0 22 55 60 82 34 25 40 47 7 24 -12 -9 -25 -16 -29 -16 -3 0 -9 26 -12 58 -12
137 -118 247 -266 277 -30 6 -56 16 -58 22 -6 18 53 79 217 221 137 119 229
182 268 182 17 0 16 -4 -20 -55 -55 -78 -22 -62 74 36 51 52 117 112 146 134
46 35 52 43 52 76 0 21 -4 40 -9 43 -9 6 -310 -25 -466 -48 -55 -9 -154 -20
-220 -26 -66 -6 -201 -22 -300 -35 -99 -14 -254 -31 -345 -40 -91 -9 -192 -20
-225 -25 -33 -5 -186 -23 -340 -40 -617 -68 -891 -102 -902 -112 -33 -27 -2
-68 51 -68 13 0 31 -3 40 -6 14 -5 14 -9 1 -34 -24 -46 -204 -223 -427 -418
-184 -162 -231 -212 -215 -228 5 -5 178 145 371 321 l88 79 18 -22 c11 -13 23
-56 31 -107 l12 -85 -28 -30 c-15 -16 -94 -62 -174 -101 -340 -167 -800 -389
-806 -389 -22 0 480 555 741 818 135 136 176 172 197 172 30 0 42 17 52 78 8
48 -4 54 -56 27 -16 -9 -86 -22 -157 -31 -277 -33 -558 -63 -897 -94 -121 -12
-269 -28 -330 -36 -177 -23 -341 -42 -475 -54 -69 -6 -174 -17 -235 -25 -60
-8 -236 -26 -390 -40 -295 -27 -456 -46 -594 -71 -46 -8 -85 -13 -87 -11 -2 2
4 17 14 34 19 35 77 83 197 163 44 29 98 68 121 86 119 96 500 303 779 425
221 96 708 284 840 324 144 44 123 45 524 -30 157 -29 323 -59 369 -66 46 -7
91 -18 100 -25 15 -11 5 -18 -73 -54 -398 -185 -470 -223 -504 -263 -30 -37
18 -21 170 57 181 93 470 223 515 232 16 3 139 -15 279 -40 388 -71 458 -84
631 -111 173 -27 229 -31 239 -16 8 14 -3 16 -345 71 -283 45 -647 111 -692
126 -10 3 -18 9 -18 14 0 18 383 164 530 201 41 10 111 32 155 48 167 61 381
128 415 129 19 1 124 -5 234 -13z m-5681 -39 c-19 -27 -43 -41 -43 -26 0 4 12
23 27 41 31 36 44 23 16 -15z m-168 -12 c-43 -66 -115 -127 -115 -98 0 12 125
143 128 133 2 -5 -4 -21 -13 -35z m-203 -46 c-22 -36 -112 -127 -112 -114 0
16 120 159 128 151 2 -2 -5 -19 -16 -37z m-493 18 c24 -29 -22 -66 -63 -50
-23 9 -20 19 10 43 31 25 38 26 53 7z m592 -3 c-26 -44 -51 -66 -51 -44 0 9
46 61 55 61 3 0 1 -8 -4 -17z m6395 1 c21 -14 42 -16 132 -11 59 4 118 10 131
14 15 4 22 2 18 -4 -4 -6 -26 -16 -50 -22 -77 -22 -126 -80 -69 -81 9 0 35 -9
57 -20 l40 -20 -70 6 c-50 4 -88 0 -130 -11 -113 -32 -113 -32 -111 12 l1 38
-63 6 c-71 7 -87 15 -46 24 69 16 91 27 107 55 21 35 20 35 53 14z m-431 -39
c72 -8 132 -14 135 -15 2 0 -1 -5 -6 -10 -7 -7 -57 -3 -155 11 -79 11 -146 23
-148 25 -7 7 38 4 174 -11z m-6360 -94 c-14 -29 -63 -67 -72 -57 -8 7 36 74
55 85 26 15 33 3 17 -28z m65 30 c0 -13 -40 -61 -51 -61 -15 0 -11 15 12 44
20 26 39 34 39 17z m7239 -37 c7 -6 -65 -5 -83 2 -9 3 -14 10 -11 14 5 7 84
-6 94 -16z m260 -30 c2 -2 -7 -4 -22 -4 -14 0 -29 5 -32 10 -6 10 42 4 54 -6z
m768 -489 c55 -25 93 -70 93 -113 0 -26 -49 -117 -99 -185 -40 -53 -55 -47
-21 8 12 19 20 43 18 52 -3 14 -9 9 -28 -19 -29 -43 -40 -48 -40 -15 0 32 -52
137 -86 172 -16 17 -45 42 -64 57 -32 24 -34 28 -19 43 19 19 97 33 154 27 22
-2 64 -15 92 -27z m-7857 -53 c0 -4 -37 -30 -82 -57 -102 -60 -231 -159 -280
-213 -21 -23 -59 -72 -87 -110 -45 -61 -53 -68 -85 -69 -26 -1 -37 4 -41 17
-3 10 -24 46 -46 81 -38 59 -40 64 -23 76 10 7 22 13 27 13 5 0 68 28 140 62
104 49 463 206 475 208 1 0 2 -4 2 -8z m4420 -259 c0 -18 -136 -143 -156 -143
-25 0 -99 99 -85 113 5 5 49 15 98 22 106 15 143 17 143 8z m3330 -26 c0 -12
-20 -49 -45 -82 -25 -33 -43 -65 -41 -72 3 -7 1 -15 -4 -18 -21 -13 -18 37 6
90 45 103 84 141 84 82z m-8414 -69 c71 -62 78 -136 12 -117 -18 5 -35 5 -38
1 -3 -4 -25 -32 -48 -62 -22 -31 -53 -67 -68 -80 l-27 -25 7 30 6 30 -32 -35
c-18 -20 -52 -58 -76 -85 -43 -50 -44 -49 -26 18 6 18 0 15 -34 -17 -22 -21
-45 -35 -51 -32 -7 5 -11 -4 -11 -23 0 -18 -10 -41 -25 -58 -25 -29 -34 -18
-14 19 16 30 3 33 -21 5 -12 -14 -28 -23 -34 -21 -6 2 -35 -37 -65 -90 -59
-104 -105 -165 -116 -154 -4 4 6 23 24 43 38 43 45 71 38 140 -10 102 -84 203
-179 245 -27 12 -48 25 -48 29 0 9 287 201 300 201 5 0 13 -8 18 -17 9 -15 18
-15 94 -5 46 7 136 30 199 51 144 50 167 51 215 9z m274 -85 c0 -32 -215 -327
-231 -318 -17 11 -9 26 49 98 33 40 83 107 112 150 48 69 70 91 70 70z m8030
-46 c0 -2 -12 -14 -27 -28 l-28 -24 24 28 c23 25 31 32 31 24z m-226 -89 c-40
-67 -180 -229 -170 -196 6 21 158 207 169 208 5 0 5 -6 1 -12z m-6040 -52
c-25 -33 -36 -33 -28 2 12 55 13 57 31 40 14 -15 14 -18 -3 -42z m-1566 -56
c4 -54 -5 -140 -17 -159 -7 -10 -35 -15 -103 -16 -51 -1 -117 -6 -146 -10 -77
-10 -69 9 47 109 86 75 103 86 136 86 29 0 38 4 42 20 10 39 38 19 41 -30z
m475 36 c25 -19 21 -32 -12 -46 -35 -14 -51 -7 -51 24 0 38 28 48 63 22z
m-1098 -116 c-10 -22 -20 -38 -23 -35 -3 3 3 23 13 45 10 22 20 38 23 35 3 -3
-3 -23 -13 -45z m7658 39 c48 -26 40 -57 -23 -89 -37 -19 -43 -19 -75 -6 -42
18 -44 34 -7 68 41 39 69 46 105 27z m-7793 -72 c0 -19 -70 -161 -76 -154 -7
6 21 97 43 140 14 28 33 36 33 14z m28 -18 c-6 -16 -13 -28 -15 -25 -8 8 6 56
17 56 5 0 5 -13 -2 -31z m-513 -10 c0 -16 -38 -36 -86 -46 -34 -6 -34 -6 -16
15 21 23 77 53 92 48 6 -1 10 -9 10 -17z m425 -6 c-1 -67 -86 -209 -120 -200
-9 2 -25 0 -35 -6 -21 -11 -20 -5 14 81 28 71 13 59 -27 -21 -29 -58 -56 -86
-69 -73 -2 2 17 42 43 88 27 45 48 84 49 84 0 1 17 4 38 8 31 6 37 4 37 -11 1
-10 12 3 26 30 27 53 44 60 44 20z m5876 11 c41 -20 47 -28 39 -54 -8 -26 -21
-25 -29 3 -5 18 -8 20 -16 7 -5 -8 -10 -25 -10 -36 0 -42 -72 -175 -86 -161
-3 3 4 28 15 56 10 28 15 51 10 51 -5 0 -9 9 -9 19 0 35 -17 32 -23 -3 -11
-66 -85 -192 -102 -174 -3 3 6 31 20 63 29 67 29 65 11 65 -8 0 -28 -24 -44
-53 -16 -29 -37 -59 -46 -66 -14 -12 -16 -11 -16 7 0 31 -18 37 -26 9 -3 -14
-19 -38 -35 -53 -25 -24 -31 -26 -39 -14 -5 8 -10 21 -10 28 0 27 -18 1 -40
-60 -28 -76 -104 -198 -108 -174 -2 9 8 41 22 72 14 31 26 62 26 70 0 26 -20
25 -30 -2 -15 -38 -49 -84 -63 -84 -7 1 -30 29 -52 63 -22 34 -63 85 -91 114
l-52 52 42 24 c22 14 97 53 166 87 69 34 152 78 184 98 89 53 119 61 244 62
85 0 123 -4 148 -16z m15 -161 c-10 -17 -10 -16 -11 3 0 23 13 41 18 25 2 -6
-1 -18 -7 -28z m-5736 -6 c7 -7 4 -8 -8 -3 -10 3 -27 6 -38 6 -10 0 -19 5 -19
10 0 12 50 2 65 -13z m1785 -27 c0 -19 -106 -107 -117 -96 -8 8 23 42 71 77
43 32 46 33 46 19z m4009 -31 c-15 -29 -29 -32 -29 -7 0 30 20 53 31 36 4 -7
3 -20 -2 -29z m-5937 -16 c-18 -3 -36 -11 -39 -19 -3 -8 -12 -14 -21 -14 -13
0 -12 3 3 20 12 14 29 20 54 18 l36 -1 -33 -4z m5833 -63 c-9 -18 -19 -30 -21
-27 -3 3 2 19 11 37 9 18 19 30 21 27 3 -3 -2 -19 -11 -37z m-65 6 c-20 -53
-59 -122 -79 -140 -12 -11 -21 -16 -21 -12 0 29 85 176 102 176 4 0 3 -11 -2
-24z m-707 -10 c18 -7 52 -35 75 -61 50 -57 70 -113 54 -149 -7 -16 -7 -27 0
-34 11 -11 -28 -92 -44 -92 -11 0 -10 5 7 47 18 43 18 43 3 43 -7 0 -26 -23
-43 -51 -32 -55 -71 -96 -81 -86 -4 3 4 22 16 42 12 20 20 39 17 42 -7 6 -36
-24 -97 -103 l-45 -57 -6 29 c-14 70 -74 170 -140 236 -49 48 -64 69 -56 76
23 18 272 132 290 132 10 0 32 -6 50 -14z m598 -50 c-17 -29 -31 -60 -31 -68
0 -21 -39 -68 -56 -68 -12 0 -12 4 0 34 20 48 94 156 107 156 6 0 -3 -24 -20
-54z m-1098 -23 c-71 -83 -96 -122 -89 -138 8 -22 24 -19 105 20 l74 35 43
-20 c76 -37 163 -153 164 -218 0 -12 5 -31 12 -41 10 -16 6 -25 -25 -62 -20
-23 -37 -46 -37 -51 0 -4 -11 -8 -25 -8 -16 0 -42 -18 -78 -52 -29 -29 -82
-78 -116 -109 -50 -45 -62 -60 -57 -76 8 -26 -33 -77 -73 -91 -16 -6 -31 -8
-34 -6 -2 2 3 25 11 51 13 39 14 57 4 115 -15 86 -38 132 -94 186 -84 83 -177
111 -297 89 l-45 -8 20 22 c10 11 35 30 56 40 20 10 38 22 40 27 8 21 460 352
481 352 5 0 -13 -26 -40 -57z m1011 -5 c-15 -29 -29 -48 -31 -41 -5 15 34 93
47 93 6 0 -2 -24 -16 -52z m-44 36 c0 -22 -84 -134 -101 -134 -11 0 18 52 59
108 22 29 42 42 42 26z m-4020 -73 c0 -14 -47 -67 -54 -61 -5 5 41 70 50 70 2
0 4 -4 4 -9z m-180 -75 c0 -19 -38 -74 -59 -86 -29 -15 -27 2 4 48 14 20 25
42 25 49 0 7 7 10 15 7 8 -4 15 -11 15 -18z m4108 -48 c-26 -46 -103 -136
-111 -128 -7 6 114 170 126 170 4 0 -2 -19 -15 -42z m-4268 -6 c0 -14 -49 -56
-57 -49 -3 4 4 18 17 32 24 25 40 32 40 17z m830 -58 c13 -14 6 -24 -68 -95
-46 -43 -87 -79 -93 -79 -5 0 -9 9 -9 20 0 11 -3 20 -6 20 -3 0 -29 -21 -58
-46 -28 -26 -63 -55 -79 -64 -15 -9 -52 -44 -81 -77 -60 -65 -163 -149 -173
-140 -7 8 35 64 102 136 l50 55 -48 -33 c-26 -18 -54 -43 -63 -56 -21 -32
-174 -169 -181 -162 -9 9 32 68 76 112 23 21 41 43 41 47 0 17 -46 -15 -97
-67 -56 -59 -130 -112 -140 -101 -21 21 198 199 239 193 9 -1 40 19 70 44 58
50 153 122 317 242 100 73 108 77 146 72 22 -3 47 -13 55 -21z m3209 -38 c-7
-14 -16 -26 -21 -26 -5 0 -1 14 7 31 20 37 31 33 14 -5z m-3168 -30 c-24 -38
-85 -96 -102 -96 -6 0 -47 -37 -92 -81 -45 -45 -92 -88 -105 -97 -59 -38 -20
9 134 163 113 114 169 164 176 157 7 -7 4 -22 -11 -46z m-931 26 c0 -8 -59
-66 -92 -91 -29 -22 -20 3 18 52 32 41 74 63 74 39z m-972 -64 c-8 -12 -21
-24 -28 -26 -8 -3 -6 5 6 21 23 32 42 36 22 5z m1955 -21 c-3 -7 -18 -28 -32
-47 -30 -40 -6 -25 40 25 22 24 30 27 40 18 10 -10 10 -17 0 -36 -17 -32 -91
-79 -115 -73 -10 3 -29 -2 -42 -11 -13 -8 -24 -11 -24 -6 0 14 77 115 103 135
23 18 42 14 30 -5z m3112 -17 c-14 -27 -55 -60 -55 -44 0 12 51 74 61 74 5 0
3 -13 -6 -30z m-3240 -59 c-39 -54 -109 -121 -126 -121 -25 0 128 168 153 170
5 0 -8 -22 -27 -49z m3095 -16 c-23 -37 -79 -89 -87 -81 -3 3 19 35 48 72 53
67 79 74 39 9z m-3270 21 c0 -21 -157 -172 -168 -161 -6 6 148 165 160 165 5
0 8 -2 8 -4z m3112 -123 c-51 -61 -80 -88 -88 -80 -4 3 22 36 56 72 72 74 92
80 32 8z m-718 -9 c20 -19 20 -28 1 -69 -12 -23 -26 -35 -54 -44 -78 -23 -95
-7 -62 57 34 66 82 89 115 56z m546 -109 c-7 -9 -23 -21 -34 -27 -16 -8 -14
-3 8 21 29 31 51 36 26 6z m-3680 -186 c-36 -30 -50 -36 -50 -19 0 12 73 60
80 53 3 -3 -11 -18 -30 -34z m-145 -39 c-10 -11 -23 -20 -29 -20 -6 1 0 10 13
20 30 26 39 26 16 0z"/>
<path d="M8605 5999 c-15 -23 -65 -128 -112 -233 -47 -105 -134 -299 -195
-431 -61 -132 -132 -287 -159 -344 -26 -58 -46 -108 -43 -113 12 -20 27 -3 61
67 35 75 55 95 34 34 -13 -38 -14 -59 -2 -59 16 0 196 411 189 432 -2 6 -24
-28 -48 -75 -25 -47 -46 -84 -48 -82 -2 1 17 47 42 101 42 93 239 548 293 677
14 33 22 61 19 64 -2 3 -17 -14 -31 -38z"/>
<path d="M8406 5431 c-18 -35 -19 -41 -7 -41 11 0 36 59 28 66 -3 3 -13 -8
-21 -25z"/>
<path d="M8833 4888 c-104 -84 -331 -303 -317 -306 9 -2 37 15 64 37 27 23 53
41 58 41 18 0 92 66 124 111 18 26 48 59 66 74 32 27 57 63 49 71 -2 2 -22
-10 -44 -28z"/>
<path d="M8568 4737 c-124 -111 -156 -145 -128 -135 27 9 280 234 280 250 0
17 -19 3 -152 -115z"/>
<path d="M3885 4694 c-55 -19 -106 -41 -114 -49 -30 -29 17 -27 116 5 129 43
137 48 122 66 -15 18 -7 19 -124 -22z"/>
<path d="M3785 4483 c4 -65 11 -172 16 -238 5 -66 14 -192 19 -280 11 -169 67
-771 76 -817 8 -42 24 -34 24 12 0 22 -9 136 -20 253 -18 193 -33 378 -75 944
-15 202 -21 243 -37 243 -6 0 -7 -44 -3 -117z"/>
<path d="M4376 4529 c-98 -34 -107 -34 -239 2 -80 22 -90 23 -114 9 -44 -25
-39 -38 24 -55 78 -22 90 -27 77 -31 -5 -3 -55 4 -109 15 -54 11 -104 17 -111
14 -14 -5 -29 -41 -21 -50 3 -2 53 -15 111 -29 59 -13 115 -28 126 -34 14 -7
28 -6 52 4 18 8 99 40 180 72 81 32 150 65 153 73 5 14 -18 41 -34 41 -3 0
-46 -14 -95 -31z"/>
<path d="M7713 4283 c-188 -142 -256 -203 -224 -203 20 0 321 245 321 262 0
14 -6 10 -97 -59z"/>
<path d="M7615 4264 c-67 -53 -192 -156 -336 -277 -38 -31 -69 -62 -69 -67 0
-16 59 18 109 64 25 23 80 67 121 99 86 65 270 237 255 237 -5 0 -41 -25 -80
-56z"/>
<path d="M7420 4165 c-20 -24 -6 -28 15 -5 10 11 13 20 8 20 -6 0 -16 -7 -23
-15z"/>
<path d="M7315 4078 c-22 -18 -74 -61 -115 -97 -41 -36 -77 -67 -79 -68 -2 -2
-2 -6 2 -9 13 -13 228 158 241 192 8 22 -6 17 -49 -18z"/>
<path d="M7165 4040 c-14 -16 -15 -20 -4 -20 16 0 39 19 39 32 0 14 -16 9 -35
-12z"/>
<path d="M7420 4045 c-7 -8 -8 -15 -2 -15 5 0 15 7 22 15 7 8 8 15 2 15 -5 0
-15 -7 -22 -15z"/>
<path d="M7074 3960 c-27 -22 -52 -40 -56 -40 -12 0 -10 14 4 28 9 9 9 12 -3
12 -8 0 -41 -24 -75 -52 -33 -29 -88 -74 -122 -100 -52 -40 -76 -68 -58 -68 2
0 54 38 115 85 103 78 144 100 86 45 -14 -13 -23 -25 -21 -28 6 -5 154 108
180 137 32 35 1 24 -50 -19z"/>
<path d="M6726 3814 c-70 -53 -130 -93 -132 -91 -2 2 30 34 72 71 78 71 92 98
26 52 -21 -14 -62 -32 -90 -40 -54 -14 -92 -39 -92 -63 0 -9 -14 -13 -44 -13
-32 0 -52 -7 -73 -24 -15 -13 -45 -29 -65 -35 -21 -7 -40 -17 -43 -21 -3 -5
-23 -14 -44 -20 -21 -5 -72 -33 -114 -60 -42 -28 -86 -50 -98 -50 -25 0 -186
-72 -239 -106 -19 -13 -60 -32 -90 -43 -72 -25 -173 -76 -189 -95 -8 -9 -27
-15 -47 -14 -22 1 -42 -6 -57 -19 -27 -26 -138 -93 -152 -93 -6 0 -33 34 -59
75 -62 93 -186 198 -186 156 0 -5 17 -23 38 -40 20 -17 49 -42 64 -57 34 -34
81 -121 75 -138 -3 -7 -56 -52 -119 -99 -62 -48 -153 -119 -203 -158 -49 -39
-102 -77 -117 -85 -29 -15 -38 -44 -15 -44 8 0 46 25 85 56 60 46 72 52 72 35
0 -13 8 -21 23 -23 14 -2 25 -13 32 -33 16 -47 24 -55 56 -55 20 0 39 9 56 28
22 23 24 33 20 74 -7 54 6 71 50 66 22 -2 29 1 31 19 4 28 37 60 147 142 150
112 164 119 152 69 -7 -24 -97 -100 -133 -112 -27 -8 -67 -51 -62 -66 4 -12
53 20 154 102 33 27 65 48 71 48 7 0 24 -18 38 -40 20 -31 32 -40 53 -40 30 0
240 101 253 121 4 7 -1 35 -12 63 -16 44 -17 52 -5 65 22 21 43 7 51 -36 4
-20 11 -46 16 -56 10 -17 11 -17 36 3 14 11 33 20 42 20 9 0 27 7 40 16 17 13
21 22 16 42 l-6 26 18 -23 c20 -25 23 -24 163 41 36 17 90 41 120 55 103 46
245 116 272 135 14 10 33 18 42 18 26 0 107 42 114 58 9 24 -28 44 -70 39 -46
-6 -51 13 -13 40 71 50 72 51 50 69 -20 15 -20 15 5 35 130 105 177 151 153
148 -5 0 -66 -43 -137 -95z m-175 -177 c30 -8 33 -33 5 -60 -14 -15 -26 -31
-26 -37 0 -5 -6 -10 -14 -10 -16 0 -41 54 -32 68 3 6 -1 12 -9 16 -20 7 -8 34
24 51 23 12 26 12 29 -5 2 -10 12 -20 23 -23z m-371 -107 c0 -12 -28 -25 -36
-17 -9 9 6 27 22 27 8 0 14 -5 14 -10z m-82 -66 c-10 -10 -28 6 -28 24 0 15 1
15 17 -1 9 -9 14 -19 11 -23z m183 9 c5 -14 7 -34 4 -42 -6 -14 -8 -13 -21 3
-16 23 -19 66 -4 66 6 0 15 -12 21 -27z m-244 -39 c9 -23 -13 -40 -32 -24 -12
10 -13 16 -4 26 15 18 28 18 36 -2z m199 -49 c-3 -9 -11 -15 -18 -13 -19 7
-32 34 -24 53 6 18 8 18 28 -2 13 -13 18 -28 14 -38z m-92 -1 c9 -23 7 -54 -3
-54 -5 0 -19 8 -32 19 -20 16 -21 21 -10 35 17 20 37 21 45 0z m-320 -33 c7
-11 -69 -81 -89 -81 -21 0 -19 28 3 34 11 4 29 18 42 31 25 27 35 30 44 16z
m-204 -81 c0 -5 -9 -10 -21 -10 -11 0 -17 5 -14 10 3 6 13 10 21 10 8 0 14 -4
14 -10z m40 -50 c0 -20 -5 -30 -15 -30 -18 0 -20 31 -3 48 17 17 18 16 18 -18z
m110 -30 c0 -13 -7 -20 -19 -20 -21 0 -37 -17 -42 -44 -6 -28 -26 -31 -39 -6
-17 33 -3 57 43 74 56 19 57 19 57 -4z m-570 -155 c-7 -9 -15 -13 -19 -10 -3
3 1 10 9 15 21 14 24 12 10 -5z m-170 -204 c0 -20 -19 -41 -37 -41 -19 0 -16
47 4 59 21 12 33 5 33 -18z"/>
<path d="M4846 2949 c-88 -71 -162 -126 -165 -124 -3 3 22 32 54 65 59 59 58
83 0 34 -112 -94 -305 -243 -342 -262 -33 -18 -53 -15 -53 9 0 27 -44 150 -67
187 -57 91 -137 162 -182 162 -34 0 -25 -16 29 -50 100 -64 157 -161 184 -309
6 -32 5 -33 -11 -19 -33 29 -118 68 -146 68 -82 0 -143 -72 -155 -182 l-7 -63
-62 -30 c-75 -36 -90 -49 -76 -67 12 -16 43 -111 43 -133 0 -27 25 -27 90 -1
80 33 85 32 100 -4 17 -40 -7 -80 -48 -80 -16 0 -46 -14 -69 -30 -24 -18 -47
-28 -57 -24 -16 6 -119 -68 -161 -116 l-20 -23 24 6 c21 5 17 -1 -21 -41 -39
-40 -47 -55 -52 -99 -6 -48 -5 -53 12 -53 11 0 37 7 58 16 26 11 39 13 42 5 6
-18 27 -12 53 15 13 14 66 45 117 69 86 41 117 68 96 84 -24 17 -34 51 -23 74
11 20 9 20 -22 -5 -40 -33 -142 -92 -184 -108 -26 -10 -28 -9 -15 3 33 31 303
237 311 237 17 0 9 -16 -21 -45 -41 -39 -30 -44 17 -8 51 40 81 55 87 44 3 -5
-1 -14 -9 -21 -8 -7 -15 -19 -15 -27 0 -19 22 -6 83 47 69 61 110 125 109 169
-2 50 8 61 80 96 55 26 63 34 66 61 2 17 -4 51 -13 75 -24 64 -28 86 -21 113
8 33 30 39 59 15 35 -27 47 -24 47 14 0 29 10 39 118 118 177 131 337 271 305
268 -4 0 -80 -59 -167 -130z m-416 -378 c0 -15 -25 -31 -60 -38 -42 -8 -33 12
14 33 37 16 46 17 46 5z m-254 -41 c5 -5 27 -16 49 -23 36 -13 40 -17 37 -45
-2 -17 4 -42 12 -54 23 -32 21 -51 -3 -38 -31 16 -47 12 -61 -15 l-13 -25 -17
38 c-10 22 -29 43 -46 51 l-29 13 28 22 c23 19 26 27 21 54 -6 32 3 41 22 22z
m272 -46 c-18 -18 -78 -36 -78 -24 0 13 73 49 83 43 5 -3 3 -12 -5 -19z m-433
-94 c7 -11 -30 -36 -67 -45 -24 -6 -28 -4 -28 13 0 12 8 26 18 31 22 13 69 14
77 1z m1 -89 c-7 -11 -56 -21 -56 -10 0 4 8 10 18 12 30 8 43 7 38 -2z"/>
<path d="M4443 2788 c-24 -16 -43 -34 -43 -39 0 -12 23 0 65 35 44 35 27 39
-22 4z"/>
<path d="M4772 2655 c-46 -19 -90 -39 -98 -46 -19 -16 -18 -68 1 -76 22 -8
225 92 225 111 0 27 -12 46 -29 46 -9 0 -54 -16 -99 -35z"/>
<path d="M3205 2519 c-112 -62 -131 -77 -116 -92 12 -12 370 18 383 31 8 8 7
16 -3 28 -17 22 -128 94 -143 94 -6 0 -60 -28 -121 -61z"/>
<path d="M3723 2420 c-22 -13 -33 -27 -33 -43 0 -28 43 -72 63 -64 21 8 29
127 9 127 -4 0 -22 -9 -39 -20z"/>
<path d="M4523 2178 c-49 -52 -80 -106 -54 -96 12 5 111 120 111 130 0 17 -17
7 -57 -34z"/>
<path d="M4540 2140 c0 -5 5 -10 10 -10 6 0 10 5 10 10 0 6 -4 10 -10 10 -5 0
-10 -4 -10 -10z"/>
<path d="M3335 2015 c-83 -37 -136 -75 -102 -75 23 0 166 55 195 75 22 16 22
35 -1 35 -7 0 -48 -16 -92 -35z"/>
<path d="M3642 1997 c-89 -52 -289 -197 -333 -243 -48 -50 -28 -53 35 -5 30
22 60 41 67 41 24 0 328 224 329 243 0 15 -27 5 -98 -36z"/>
<path d="M2743 1833 c-36 -14 10 -63 59 -63 39 0 38 34 -2 55 -30 16 -37 17
-57 8z"/>
<path d="M4094 1826 c-10 -8 -16 -17 -13 -20 3 -3 14 3 24 14 21 23 17 26 -11
6z"/>
<path d="M2485 1737 c22 -8 42 -12 44 -10 9 7 -8 14 -45 19 l-39 4 40 -13z"/>
<path d="M3630 1695 c-18 -19 -20 -25 -8 -25 15 0 48 30 48 43 0 14 -17 6 -40
-18z"/>
<path d="M3720 1690 c-8 -5 -12 -11 -9 -14 2 -3 11 -1 19 4 8 5 12 11 9 14 -2
3 -11 1 -19 -4z"/>
<path d="M3720 1645 c-7 -8 -8 -15 -2 -15 5 0 15 7 22 15 7 8 8 15 2 15 -5 0
-15 -7 -22 -15z"/>
<path d="M3460 1585 c-19 -19 -30 -38 -26 -42 3 -4 23 9 42 29 20 19 32 38 27
41 -6 4 -25 -9 -43 -28z"/>
<path d="M11650 3305 c-113 -13 -326 -35 -475 -49 -258 -26 -446 -46 -930
-101 -121 -14 -350 -38 -510 -55 -356 -37 -425 -45 -641 -75 -181 -26 -617
-76 -824 -95 -69 -6 -213 -20 -320 -31 -302 -32 -248 -26 -1050 -105 -325 -32
-640 -70 -910 -109 -58 -8 -231 -31 -385 -50 -372 -47 -355 -44 -355 -62 0
-14 16 -15 128 -9 70 4 168 13 217 21 50 8 128 20 175 25 47 6 128 17 180 24
52 8 133 19 180 25 47 7 114 16 150 21 207 29 323 42 600 70 113 11 221 22
240 25 19 3 87 10 150 15 122 10 462 46 514 55 45 8 548 60 910 95 115 11 281
31 370 45 197 29 555 71 1066 124 212 23 423 45 470 51 47 5 155 17 240 25 85
9 214 22 285 30 72 8 177 19 235 25 333 34 574 61 582 66 19 12 -5 24 -45 23
-23 -1 -134 -11 -247 -24z"/>
</g>
</svg>
