<?xml version="1.0" standalone="no"?>
<!DOCTYPE svg PUBLIC "-//W3C//DTD SVG 20010904//EN"
 "http://www.w3.org/TR/2001/REC-SVG-20010904/DTD/svg10.dtd">
<svg version="1.0" xmlns="http://www.w3.org/2000/svg"
 width="1280.000000pt" height="640.000000pt" viewBox="0 0 1280.000000 640.000000"
 preserveAspectRatio="xMidYMid meet">
<metadata>
Created by potrace 1.15, written by Peter Selinger 2001-2017
</metadata>
<g transform="translate(0.000000,640.000000) scale(0.100000,-0.100000)"
fill="#000000" stroke="none">
<path d="M10505 5212 c-16 -10 -241 -234 -499 -498 -642 -655 -823 -834 -844
-834 -10 0 -63 39 -118 86 -54 47 -109 91 -122 97 -50 23 -15 32 135 35 147 2
151 3 155 25 2 12 2 32 0 44 l-3 23 -457 3 -457 4 -90 26 c-122 35 -218 36
-268 3 l-35 -24 -329 9 c-180 5 -339 9 -353 10 -14 1 -52 -2 -85 -6 -94 -12
-120 -32 -67 -54 64 -26 146 -33 373 -31 129 1 269 -2 309 -6 73 -7 73 -7 44
-22 -16 -9 -153 -69 -304 -134 -221 -95 -284 -118 -322 -118 -26 0 -174 13
-330 29 -337 36 -549 57 -716 71 -67 6 -142 18 -165 26 -23 8 -105 33 -182 55
-77 22 -223 67 -325 100 -670 218 -1114 287 -1587 248 -362 -29 -551 -79
-1223 -325 -324 -118 -359 -128 -500 -144 -52 -6 -112 -16 -133 -21 -27 -7
-48 -6 -72 2 -29 11 -50 10 -127 -5 -51 -10 -104 -26 -118 -36 -14 -9 -43 -20
-65 -24 -22 -4 -96 -20 -165 -36 -69 -16 -251 -50 -405 -75 -326 -53 -468 -86
-693 -161 -243 -81 -362 -140 -362 -181 0 -22 57 -50 185 -92 265 -88 449
-117 1049 -166 141 -12 199 -21 232 -35 47 -22 128 -26 184 -10 20 6 65 8 103
4 78 -8 69 3 125 -144 27 -69 31 -75 61 -78 36 -4 36 -6 15 87 -9 39 -14 77
-11 85 10 25 112 30 340 17 148 -9 227 -17 247 -27 l29 -15 -7 -72 c-4 -40 -7
-94 -7 -122 l0 -50 195 -12 c298 -17 310 -17 310 8 0 19 4 21 43 16 23 -4 150
-11 282 -18 230 -11 295 -21 264 -39 -9 -6 -10 -12 -2 -22 6 -7 13 -57 16
-110 5 -90 4 -98 -14 -103 -27 -9 -101 28 -272 133 -138 86 -177 104 -177 83
0 -11 110 -86 279 -191 93 -58 139 -93 153 -116 16 -28 22 -32 37 -22 37 23
51 4 51 -67 0 -60 -3 -69 -27 -88 -68 -55 -91 -87 -102 -137 -23 -105 34 -230
124 -277 75 -40 192 -7 241 67 43 65 42 123 -4 248 -3 8 1 10 12 6 18 -7 23
21 5 31 -6 4 -9 19 -8 33 3 33 -15 70 -48 98 -23 19 -51 100 -38 112 2 3 32 6
65 6 33 0 60 4 60 8 0 4 -12 32 -26 61 l-26 54 27 28 c34 33 90 51 110 35 10
-8 94 28 351 151 l339 162 76 -6 c62 -4 95 -13 170 -47 111 -50 176 -74 284
-105 l80 -22 -60 -7 c-33 -3 -127 -11 -210 -16 -126 -8 -315 -38 -474 -75 -23
-6 -23 -5 -16 55 l7 62 -28 -4 c-28 -3 -28 -3 -48 -90 -5 -22 -12 -28 -33 -28
-51 0 -124 -63 -107 -93 18 -32 51 -58 85 -67 37 -10 37 -11 46 -73 7 -57 10
-62 33 -62 23 0 25 4 28 53 2 28 4 52 6 52 1 0 65 -21 142 -46 148 -49 353
-104 385 -104 29 0 22 -22 -16 -50 -19 -14 -35 -28 -35 -31 0 -10 144 -86 218
-114 74 -29 88 -46 52 -65 -11 -6 -20 -14 -20 -18 0 -12 132 -80 226 -116 113
-44 257 -80 415 -105 241 -39 375 -45 869 -43 l475 1 35 -28 c19 -15 45 -33
58 -40 l22 -12 -28 -42 c-59 -86 -69 -185 -28 -272 58 -125 183 -185 315 -151
166 42 245 180 197 340 -20 67 -52 109 -113 149 -38 25 -49 38 -40 44 6 6 138
15 293 21 292 12 423 29 612 77 208 53 273 87 293 155 16 52 0 107 -43 149
l-32 31 71 0 c40 0 83 -4 97 -10 16 -6 27 -6 31 0 9 15 76 12 108 -5 16 -8 77
-55 137 -105 59 -49 111 -90 114 -90 3 0 6 45 6 100 0 98 0 100 25 106 21 5
25 12 25 44 0 35 -3 39 -27 42 -24 3 -28 8 -31 41 -3 36 -2 37 30 38 18 0 103
2 188 3 85 2 229 12 320 24 264 34 590 47 830 33 l203 -11 65 36 c90 50 130
49 347 -16 432 -128 673 -167 1060 -171 159 -1 174 0 230 23 136 55 156 33
-195 213 -244 125 -314 165 -322 185 -11 26 -17 424 -7 434 5 5 489 134 566
151 55 11 46 22 -35 44 -211 56 -484 69 -897 42 l-210 -14 -220 36 c-121 20
-242 39 -268 43 -28 4 -51 13 -54 21 -5 13 20 104 174 623 31 102 63 194 73
205 9 11 20 32 24 46 4 19 14 28 35 32 35 7 47 34 26 57 -14 16 -14 18 0 23
22 9 19 45 -5 52 -23 7 -27 25 -5 25 20 0 36 32 24 51 -5 7 -6 28 -3 46 7 35
7 35 -104 47 -24 2 -46 6 -48 9 -7 7 33 162 50 196 9 17 25 31 38 33 30 4 30
40 1 53 -31 13 -29 19 10 30 41 13 41 36 -1 55 -31 15 -32 17 -15 32 10 9 32
18 48 20 39 4 42 39 5 48 -23 6 -25 10 -22 51 l3 45 -48 12 c-26 7 -192 19
-368 27 -176 8 -338 18 -360 20 -29 4 -48 1 -70 -13z m-6461 -2393 c20 -49 36
-95 36 -102 -1 -16 -106 -87 -128 -87 -9 1 -39 21 -67 46 l-50 45 65 -3 65 -2
9 113 c11 132 14 132 70 -10z m380 92 l51 -7 -152 -77 c-84 -42 -159 -77 -167
-77 -9 0 -21 29 -35 85 -11 46 -21 87 -21 91 0 7 243 -5 324 -15z m-543 -372
c9 -17 8 -23 -2 -30 -26 -16 -39 -9 -39 21 0 36 24 41 41 9z m-27 -197 c17
-60 22 -142 9 -142 -5 0 -25 5 -45 11 l-38 10 0 69 c0 64 2 70 21 70 16 0 19
4 14 20 -4 14 -2 20 8 20 9 0 20 -22 31 -58z"/>
</g>
</svg>
