<?xml version="1.0" standalone="no"?>
<!DOCTYPE svg PUBLIC "-//W3C//DTD SVG 20010904//EN"
 "http://www.w3.org/TR/2001/REC-SVG-20010904/DTD/svg10.dtd">
<svg version="1.0" xmlns="http://www.w3.org/2000/svg"
 width="1280.000000pt" height="864.000000pt" viewBox="0 0 1280.000000 864.000000"
 preserveAspectRatio="xMidYMid meet">
<metadata>
Created by potrace 1.15, written by Peter Selinger 2001-2017
</metadata>
<g transform="translate(0.000000,864.000000) scale(0.100000,-0.100000)"
fill="#000000" stroke="none">
<path d="M4020 8600 c-274 -35 -322 -44 -685 -134 -386 -94 -949 -247 -962
-260 -4 -3 222 -578 501 -1277 280 -698 506 -1272 503 -1275 -3 -3 -23 -10
-44 -15 -30 -7 -102 3 -352 48 l-315 57 -709 483 c-390 266 -714 483 -719 483
-15 0 -488 -432 -488 -445 0 -7 13 -73 30 -146 16 -74 70 -322 120 -553 50
-230 99 -435 110 -456 19 -38 20 -38 92 -44 40 -3 141 -9 225 -14 l152 -7
-274 -120 -274 -119 5 -41 c2 -22 8 -83 13 -135 8 -86 46 -215 72 -244 4 -4
153 -17 331 -27 177 -10 330 -20 338 -22 29 -5 -539 -197 -715 -241 -99 -25
-292 -76 -430 -114 l-250 -69 -32 -59 c-29 -54 -42 -65 -147 -132 -101 -65
-114 -76 -104 -91 9 -15 31 -19 116 -25 58 -3 126 -6 151 -6 41 0 49 -4 81
-41 l36 -42 429 27 c237 14 441 26 455 26 18 0 -3 -16 -75 -58 l-100 -58 3
-123 3 -124 49 -97 49 -97 98 -6 c54 -4 134 -7 178 -7 44 0 118 -3 164 -7 l83
-6 -228 -115 c-126 -63 -239 -120 -251 -128 -23 -14 -23 -17 -23 -242 0 -125
3 -419 7 -655 l6 -427 308 -100 c169 -55 311 -100 317 -100 5 0 189 250 407
556 l397 556 38 -37 37 -37 235 8 235 7 207 174 c114 96 209 173 210 171 2 -1
-28 -255 -65 -563 -182 -1485 -250 -2047 -247 -2050 11 -12 868 158 1233 244
579 137 779 201 711 227 -36 14 -237 -21 -530 -91 -175 -41 -320 -74 -322 -73
-1 2 516 776 1149 1720 l1152 1718 232 122 c161 83 250 137 288 171 46 40 76
56 164 88 90 31 127 51 218 117 60 44 122 86 138 94 110 57 958 411 1035 433
52 15 146 44 209 66 121 42 166 47 209 25 23 -12 36 -12 87 0 33 7 95 21 138
29 106 22 91 30 -18 10 -71 -14 -92 -14 -117 -4 l-30 12 44 27 c26 15 200 73
438 144 320 97 440 138 632 218 302 125 421 171 693 268 511 182 611 223 825
340 118 65 246 144 302 186 84 65 128 88 323 174 124 55 230 100 235 100 5 0
11 4 14 9 4 5 -10 5 -32 0 -20 -4 -120 -26 -222 -48 l-185 -39 -367 32 -368
32 -682 -123 -683 -123 -1115 -65 c-613 -36 -1153 -65 -1199 -65 -47 0 -217 9
-378 21 l-293 21 -74 -25 -74 -25 -29 35 -28 35 -218 30 -218 30 -82 -23 c-64
-18 -82 -20 -85 -10 -10 30 -86 93 -727 597 -880 691 -808 633 -795 649 14 16
-4 30 -40 30 -17 0 -147 93 -410 294 -439 334 -449 343 -430 365 7 9 9 16 4
17 -5 0 -20 2 -34 2 -17 1 -105 64 -247 177 -173 136 -218 177 -205 183 14 6
697 185 806 211 27 7 28 8 11 26 -22 24 2 26 -355 -20z"/>
</g>
</svg>
